{
  "accessors": [
    {
      "bufferView": 2,
      "componentType": 5126,
      "count": 17,
      "max": [
        2.5400004386901855,
        4.078520774841309,
        2.54000186920166
      ],
      "min": [
        -2.5400004386901855,
        -3.628045082092285,
        -2.5400004386901855
      ],
      "type": "VEC3"
    },
    {
      "bufferView": 2,
      "byteOffset": 204,
      "componentType": 5126,
      "count": 17,
      "max": [
        0.9998699426651001,
        0.08001846075057983,
        0.9998699426651001
      ],
      "min": [
        -0.9998699426651001,
        0.016129057854413986,
        -0.9998699426651001
      ],
      "type": "VEC3"
    },
    {
      "bufferView": 1,
      "componentType": 5126,
      "count": 17,
      "max": [
        0.625,
        0.96875
      ],
      "min": [
        0.375,
        0.3125
      ],
      "type": "VEC2"
    },
    {
      "bufferView": 0,
      "componentType": 5125,
      "count": 48,
      "type": "SCALAR"
    },
    {
      "bufferView": 2,
      "byteOffset": 408,
      "componentType": 5126,
      "count": 32,
      "max": [
        2.4156854152679443,
        4.854085445404053,
        2.4156858921051025
      ],
      "min": [
        -2.4156854152679443,
        4.078520774841309,
        -2.415684700012207
      ],
      "type": "VEC3"
    },
    {
      "bufferView": 2,
      "byteOffset": 792,
      "componentType": 5126,
      "count": 32,
      "max": [
        0.9967933893203735,
        0.9417757391929626,
        0.9967933893203735
      ],
      "min": [
        -0.9967933893203735,
        0.08001837134361267,
        -0.9967933893203735
      ],
      "type": "VEC3"
    },
    {
      "bufferView": 1,
      "byteOffset": 136,
      "componentType": 5126,
      "count": 32,
      "max": [
        0.625,
        0.96875
      ],
      "min": [
        0.375,
        0.71875
      ],
      "type": "VEC2"
    },
    {
      "bufferView": 0,
      "byteOffset": 192,
      "componentType": 5125,
      "count": 144,
      "type": "SCALAR"
    },
    {
      "bufferView": 2,
      "byteOffset": 1176,
      "componentType": 5126,
      "count": 9,
      "max": [
        0.5462180972099304,
        5.116106033325195,
        0.5462183356285095
      ],
      "min": [
        -0.5462180972099304,
        4.854085445404053,
        -0.5462178587913513
      ],
      "type": "VEC3"
    },
    {
      "bufferView": 2,
      "byteOffset": 1284,
      "componentType": 5126,
      "count": 9,
      "max": [
        0.3362417221069336,
        1.0,
        0.33624184131622314
      ],
      "min": [
        -0.3362417221069336,
        0.9417756199836731,
        -0.336242139339447
      ],
      "type": "VEC3"
    },
    {
      "bufferView": 1,
      "byteOffset": 392,
      "componentType": 5126,
      "count": 9,
      "max": [
        0.53125,
        0.875
      ],
      "min": [
        0.46875,
        0.8125
      ],
      "type": "VEC2"
    },
    {
      "bufferView": 0,
      "byteOffset": 768,
      "componentType": 5125,
      "count": 24,
      "type": "SCALAR"
    },
    {
      "bufferView": 2,
      "byteOffset": 1392,
      "componentType": 5126,
      "count": 96,
      "max": [
        2.647193431854248,
        -3.628045082092285,
        2.6471946239471436
      ],
      "min": [
        -2.647193431854248,
        -4.547815322875977,
        -2.647193431854248
      ],
      "type": "VEC3"
    },
    {
      "bufferView": 2,
      "byteOffset": 2544,
      "componentType": 5126,
      "count": 96,
      "max": [
        0.9238798022270203,
        1.0,
        0.9238795638084412
      ],
      "min": [
        -0.9238798022270203,
        -1.0,
        -0.9238796234130859
      ],
      "type": "VEC3"
    },
    {
      "bufferView": 1,
      "byteOffset": 464,
      "componentType": 5126,
      "count": 96,
      "max": [
        1.0,
        1.0
      ],
      "min": [
        0.0,
        0.0
      ],
      "type": "VEC2"
    },
    {
      "bufferView": 0,
      "byteOffset": 864,
      "componentType": 5125,
      "count": 144,
      "type": "SCALAR"
    },
    {
      "bufferView": 2,
      "byteOffset": 3696,
      "componentType": 5126,
      "count": 88,
      "max": [
        2.5400004386901855,
        -4.547815322875977,
        2.54000186920166
      ],
      "min": [
        -2.5400004386901855,
        -4.886748790740967,
        -2.5400004386901855
      ],
      "type": "VEC3"
    },
    {
      "bufferView": 2,
      "byteOffset": 4752,
      "componentType": 5126,
      "count": 88,
      "max": [
        0.9238798022270203,
        0.0,
        0.9238797426223755
      ],
      "min": [
        -0.923879861831665,
        -0.9999854564666748,
        -0.9238793849945068
      ],
      "type": "VEC3"
    },
    {
      "bufferView": 1,
      "byteOffset": 1232,
      "componentType": 5126,
      "count": 88,
      "max": [
        1.0,
        1.0
      ],
      "min": [
        -0.0,
        0.0
      ],
      "type": "VEC2"
    },
    {
      "bufferView": 0,
      "byteOffset": 1440,
      "componentType": 5125,
      "count": 210,
      "type": "SCALAR"
    }
  ],
  "asset": {
    "extras": {
      "author": "idyllKingdom (https://sketchfab.com/idyllKingdom)",
      "license": "CC-BY-4.0 (http://creativecommons.org/licenses/by/4.0/)",
      "source": "https://sketchfab.com/3d-models/pencil-5648ec6fdfc94713b01f49ba5d057a3b",
      "title": "Pencil"
    },
    "generator": "Sketchfab-12.65.0",
    "version": "2.0"
  },
  "bufferViews": [
    {
      "buffer": 0,
      "byteLength": 2280,
      "name": "floatBufferViews",
      "target": 34963
    },
    {
      "buffer": 0,
      "byteLength": 1936,
      "byteOffset": 2280,
      "byteStride": 8,
      "name": "floatBufferViews",
      "target": 34962
    },
    {
      "buffer": 0,
      "byteLength": 5808,
      "byteOffset": 4216,
      "byteStride": 12,
      "name": "floatBufferViews",
      "target": 34962
    }
  ],
  "buffers": [
    {
      "byteLength": 10024,
      "uri": "pencil.bin"
    }
  ],
  "materials": [
    {
      "doubleSided": true,
      "name": "wood",
      "pbrMetallicRoughness": {
        "baseColorFactor": [
          0.5,
          0.26275,
          0.0255,
          1.0
        ],
        "metallicFactor": 0.0,
        "roughnessFactor": 0.6
      }
    },
    {
      "doubleSided": true,
      "name": "lightBrown",
      "pbrMetallicRoughness": {
        "baseColorFactor": [
          0.5,
          0.4135,
          0.327,
          1.0
        ],
        "metallicFactor": 0.0,
        "roughnessFactor": 0.6
      }
    },
    {
      "doubleSided": true,
      "name": "darkGrey",
      "pbrMetallicRoughness": {
        "baseColorFactor": [
          0.122,
          0.122,
          0.122,
          1.0
        ],
        "metallicFactor": 0.0,
        "roughnessFactor": 0.6
      }
    },
    {
      "doubleSided": true,
      "name": "silverMetal",
      "pbrMetallicRoughness": {
        "metallicFactor": 0.0,
        "roughnessFactor": 0.6
      }
    },
    {
      "doubleSided": true,
      "name": "pinkEraser",
      "pbrMetallicRoughness": {
        "baseColorFactor": [
          0.838,
          0.472632,
          0.767734,
          1.0
        ],
        "metallicFactor": 0.0,
        "roughnessFactor": 0.6
      }
    }
  ],
  "meshes": [
    {
      "name": "pencil_wood_0",
      "primitives": [
        {
          "attributes": {
            "NORMAL": 1,
            "POSITION": 0,
            "TEXCOORD_0": 2
          },
          "indices": 3,
          "material": 0,
          "mode": 4
        }
      ]
    },
    {
      "name": "pencil_lightBrown_0",
      "primitives": [
        {
          "attributes": {
            "NORMAL": 5,
            "POSITION": 4,
            "TEXCOORD_0": 6
          },
          "indices": 7,
          "material": 1,
          "mode": 4
        }
      ]
    },
    {
      "name": "pencil_darkGrey_0",
      "primitives": [
        {
          "attributes": {
            "NORMAL": 9,
            "POSITION": 8,
            "TEXCOORD_0": 10
          },
          "indices": 11,
          "material": 2,
          "mode": 4
        }
      ]
    },
    {
      "name": "pencil_silverMetal_0",
      "primitives": [
        {
          "attributes": {
            "NORMAL": 13,
            "POSITION": 12,
            "TEXCOORD_0": 14
          },
          "indices": 15,
          "material": 3,
          "mode": 4
        }
      ]
    },
    {
      "name": "pencil_pinkEraser_0",
      "primitives": [
        {
          "attributes": {
            "NORMAL": 17,
            "POSITION": 16,
            "TEXCOORD_0": 18
          },
          "indices": 19,
          "material": 4,
          "mode": 4
        }
      ]
    }
  ],
  "nodes": [
    {
      "children": [
        1
      ],
      "matrix": [
        1.0,
        0.0,
        0.0,
        0.0,
        0.0,
        2.220446049250313e-16,
        -1.0,
        0.0,
        0.0,
        1.0,
        2.220446049250313e-16,
        0.0,
        0.0,
        0.0,
        0.0,
        1.0
      ],
      "name": "Sketchfab_model"
    },
    {
      "children": [
        2
      ],
      "matrix": [
        1.0,
        0.0,
        0.0,
        0.0,
        0.0,
        0.0,
        1.0,
        0.0,
        0.0,
        -1.0,
        0.0,
        0.0,
        0.0,
        0.0,
        0.0,
        1.0
      ],
      "name": "b10cfbbad81c438c8a725ed9bb326446.fbx"
    },
    {
      "children": [
        3
      ],
      "name": "RootNode"
    },
    {
      "children": [
        4,
        5,
        6,
        7,
        8
      ],
      "matrix": [
        2.355936116004131e-17,
        0.10610193014144897,
        0.0,
        0.0,
        -0.8020440340042114,
        1.780895506629435e-16,
        0.0,
        0.0,
        0.0,
        0.0,
        0.10610193014144897,
        0.0,
        -0.3463485836982727,
        0.0,
        -5.479867935180664,
        1.0
      ],
      "name": "pencil"
    },
    {
      "mesh": 0,
      "name": "pencil_wood_0"
    },
    {
      "mesh": 1,
      "name": "pencil_lightBrown_0"
    },
    {
      "mesh": 2,
      "name": "pencil_darkGrey_0"
    },
    {
      "mesh": 3,
      "name": "pencil_silverMetal_0"
    },
    {
      "mesh": 4,
      "name": "pencil_pinkEraser_0"
    }
  ],
  "scene": 0,
  "scenes": [
    {
      "name": "Sketchfab_Scene",
      "nodes": [
        0
      ]
    }
  ]
}
